<?xml version="1.0" encoding="UTF-8" standalone="no"?>
<!-- Created with Inkscape (http://www.inkscape.org/) -->

<svg
   xmlns:dc="http://purl.org/dc/elements/1.1/"
   xmlns:cc="http://creativecommons.org/ns#"
   xmlns:rdf="http://www.w3.org/1999/02/22-rdf-syntax-ns#"
   xmlns:svg="http://www.w3.org/2000/svg"
   xmlns="http://www.w3.org/2000/svg"
   xmlns:sodipodi="http://sodipodi.sourceforge.net/DTD/sodipodi-0.dtd"
   xmlns:inkscape="http://www.inkscape.org/namespaces/inkscape"
   width="744.09448819"
   height="1052.3622047"
   id="svg2"
   version="1.1"
   inkscape:version="0.48.5 r10040"
   sodipodi:docname="domain.svg">
  <defs
     id="defs4">
    <marker
       inkscape:stockid="Arrow1Mend"
       orient="auto"
       refY="0.0"
       refX="0.0"
       id="Arrow1Mend"
       style="overflow:visible;">
      <path
         id="path3772"
         d="M 0.0,0.0 L 5.0,-5.0 L -12.5,0.0 L 5.0,5.0 L 0.0,0.0 z "
         style="fill-rule:evenodd;stroke:#000000;stroke-width:1.0pt;"
         transform="scale(0.4) rotate(180) translate(10,0)" />
    </marker>
    <marker
       inkscape:stockid="Arrow1Mstart"
       orient="auto"
       refY="0.0"
       refX="0.0"
       id="Arrow1Mstart"
       style="overflow:visible">
      <path
         id="path3769"
         d="M 0.0,0.0 L 5.0,-5.0 L -12.5,0.0 L 5.0,5.0 L 0.0,0.0 z "
         style="fill-rule:evenodd;stroke:#000000;stroke-width:1.0pt"
         transform="scale(0.4) translate(10,0)" />
    </marker>
  </defs>
  <sodipodi:namedview
     id="base"
     pagecolor="#ffffff"
     bordercolor="#666666"
     borderopacity="1.0"
     inkscape:pageopacity="0.0"
     inkscape:pageshadow="2"
     inkscape:zoom="1.4"
     inkscape:cx="202.51558"
     inkscape:cy="527.36053"
     inkscape:document-units="px"
     inkscape:current-layer="layer1"
     showgrid="false"
     inkscape:window-width="1916"
     inkscape:window-height="1005"
     inkscape:window-x="0"
     inkscape:window-y="54"
     inkscape:window-maximized="0" />
  <metadata
     id="metadata7">
    <rdf:RDF>
      <cc:Work
         rdf:about="">
        <dc:format>image/svg+xml</dc:format>
        <dc:type
           rdf:resource="http://purl.org/dc/dcmitype/StillImage" />
        <dc:title />
      </cc:Work>
    </rdf:RDF>
  </metadata>
  <g
     inkscape:label="Layer 1"
     inkscape:groupmode="layer"
     id="layer1">
    <rect
       style="color:#000000;fill:none;stroke:#000000;stroke-width:0.99999994;stroke-linecap:butt;stroke-linejoin:miter;stroke-miterlimit:4;stroke-opacity:1;stroke-dasharray:none;stroke-dashoffset:0;marker:none;visibility:visible;display:inline;overflow:visible;enable-background:accumulate"
       id="rect4571"
       width="341.15854"
       height="279.87964"
       x="199.77786"
       y="396.70807"
       ry="0"
       rx="0" />
    <path
       inkscape:connector-curvature="0"
       d="m 199.27787,396.20807 0,280.87964 m 14.19999,-280.87964 0,280.87964 m 14.2,-280.87964 0,280.87964 m 14.2,-280.87964 0,280.87964 m 14.2,-280.87964 0,280.87964 m 14.2,-280.87964 0,280.87964 m 14.2,-280.87964 0,280.87964 m 14.2,-280.87964 0,280.87964 m 14.2,-280.87964 0,280.87964 m 14.2,-280.87964 0,280.87964 m 14.2,-280.87964 0,280.87964 m 14.2,-280.87964 0,280.87964 m 14.2,-280.87964 0,280.87964 m 14.2,-280.87964 0,280.87964 m 14.2,-280.87964 0,280.87964 m 14.2,-280.87964 0,280.87964 m 14.2,-280.87964 0,280.87964 m 14.2,-280.87964 0,280.87964 m 14.2,-280.87964 0,280.87964 m 14.2,-280.87964 0,280.87964 m 14.2,-280.87964 0,280.87964 m 14.2,-280.87964 0,280.87964 m 14.2,-280.87964 0,280.87964 m 14.2,-280.87964 0,280.87964 m 14.2,-280.87964 0,280.87964 m -340.79999,-280.87964 342.15853,0 m -342.15853,14 342.15853,0 m -342.15853,14 342.15853,0 m -342.15853,14 342.15853,0 m -342.15853,14 342.15853,0 m -342.15853,14 342.15853,0 m -342.15853,14 342.15853,0 m -342.15853,14 342.15853,0 m -342.15853,14 342.15853,0 m -342.15853,14 342.15853,0 m -342.15853,14 342.15853,0 m -342.15853,14 342.15853,0 m -342.15853,14 342.15853,0 m -342.15853,14 342.15853,0 m -342.15853,14 342.15853,0 m -342.15853,14 342.15853,0 m -342.15853,14 342.15853,0 m -342.15853,14 342.15853,0 m -342.15853,14 342.15853,0 m -342.15853,14 342.15853,0 m -342.15853,14 342.15853,0"
       style="fill:none;stroke:#000000;stroke-width:0.2pt;stroke-linecap:butt;stroke-linejoin:miter;stroke-opacity:1"
       id="path5103" />
    <rect
       style="color:#000000;fill:none;stroke:#ff0000;stroke-width:0.99999994;stroke-linecap:butt;stroke-linejoin:miter;stroke-miterlimit:4;stroke-opacity:1;stroke-dasharray:none;stroke-dashoffset:0;marker:none;visibility:visible;display:inline;overflow:visible;enable-background:accumulate"
       id="rect5069"
       width="156.28741"
       height="126.58268"
       x="299.15585"
       y="479.40182" />
    <text
       xml:space="preserve"
       style="font-size:20px;font-style:normal;font-weight:normal;line-height:125%;letter-spacing:0px;word-spacing:0px;fill:#000000;fill-opacity:1;stroke:none;font-family:Sans"
       x="218.39078"
       y="424.0412"
       id="text5115"
       sodipodi:linespacing="125%"><tspan
         sodipodi:role="line"
         id="tspan5117"
         x="218.39078"
         y="424.0412">domain</tspan></text>
    <g
       id="g5149"
       transform="translate(124.08108,-60.78494)"
       style="fill:#ff0000;stroke:#ff0000">
      <text
         sodipodi:linespacing="125%"
         id="text5139"
         y="510.21933"
         x="317.12054"
         style="font-size:16px;font-style:normal;font-weight:normal;line-height:125%;letter-spacing:0px;word-spacing:0px;fill:#ff0000;fill-opacity:1;stroke:#ff0000;font-family:Sans"
         xml:space="preserve"><tspan
           y="510.21933"
           x="317.12054"
           id="tspan5141"
           sodipodi:role="line">particle</tspan></text>
      <text
         sodipodi:linespacing="125%"
         id="text5143"
         y="530.21936"
         x="321.00726"
         style="font-size:16px;font-style:normal;font-weight:normal;line-height:125%;letter-spacing:0px;word-spacing:0px;fill:#ff0000;fill-opacity:1;stroke:#ff0000;font-family:Sans"
         xml:space="preserve"><tspan
           y="530.21936"
           x="321.00726"
           id="tspan5145"
           sodipodi:role="line">source</tspan></text>
    </g>
    <path
       sodipodi:type="arc"
       style="color:#000000;fill:none;stroke:#000000;stroke-width:1;stroke-linecap:butt;stroke-linejoin:miter;stroke-miterlimit:4;stroke-opacity:1;stroke-dasharray:none;stroke-dashoffset:0;marker:none;visibility:visible;display:inline;overflow:visible;enable-background:accumulate"
       id="path5163"
       sodipodi:cx="169.70563"
       sodipodi:cy="807.90527"
       sodipodi:rx="5.0507627"
       sodipodi:ry="5.0507627"
       d="m 164.65504,807.86338 a 5.0507627,5.0507627 0 1 1 -1.8e-4,0.0419"
       sodipodi:start="3.1498879"
       sodipodi:end="9.424778"
       sodipodi:open="true"
       transform="translate(69.991193,-327.70882)" />
    <path
       transform="translate(91.419764,-298.42311)"
       sodipodi:open="true"
       sodipodi:end="9.424778"
       sodipodi:start="3.1498879"
       d="m 164.65504,807.86338 a 5.0507627,5.0507627 0 1 1 -1.8e-4,0.0419"
       sodipodi:ry="5.0507627"
       sodipodi:rx="5.0507627"
       sodipodi:cy="807.90527"
       sodipodi:cx="169.70563"
       id="path5165"
       style="color:#000000;fill:none;stroke:#000000;stroke-width:1;stroke-linecap:butt;stroke-linejoin:miter;stroke-miterlimit:4;stroke-opacity:1;stroke-dasharray:none;stroke-dashoffset:0;marker:none;visibility:visible;display:inline;overflow:visible;enable-background:accumulate"
       sodipodi:type="arc" />
    <path
       sodipodi:type="arc"
       style="color:#000000;fill:none;stroke:#000000;stroke-width:1;stroke-linecap:butt;stroke-linejoin:miter;stroke-miterlimit:4;stroke-opacity:1;stroke-dasharray:none;stroke-dashoffset:0;marker:none;visibility:visible;display:inline;overflow:visible;enable-background:accumulate"
       id="path5167"
       sodipodi:cx="169.70563"
       sodipodi:cy="807.90527"
       sodipodi:rx="5.0507627"
       sodipodi:ry="5.0507627"
       d="m 164.65504,807.86338 a 5.0507627,5.0507627 0 1 1 -1.8e-4,0.0419"
       sodipodi:start="3.1498879"
       sodipodi:end="9.424778"
       sodipodi:open="true"
       transform="translate(108.56262,-360.56597)" />
    <path
       transform="translate(57.13405,-267.70883)"
       sodipodi:open="true"
       sodipodi:end="9.424778"
       sodipodi:start="3.1498879"
       d="m 164.65504,807.86338 a 5.0507627,5.0507627 0 1 1 -1.8e-4,0.0419"
       sodipodi:ry="5.0507627"
       sodipodi:rx="5.0507627"
       sodipodi:cy="807.90527"
       sodipodi:cx="169.70563"
       id="path5169"
       style="color:#000000;fill:none;stroke:#000000;stroke-width:1;stroke-linecap:butt;stroke-linejoin:miter;stroke-miterlimit:4;stroke-opacity:1;stroke-dasharray:none;stroke-dashoffset:0;marker:none;visibility:visible;display:inline;overflow:visible;enable-background:accumulate"
       sodipodi:type="arc" />
    <path
       sodipodi:type="arc"
       style="color:#000000;fill:none;stroke:#000000;stroke-width:1;stroke-linecap:butt;stroke-linejoin:miter;stroke-miterlimit:4;stroke-opacity:1;stroke-dasharray:none;stroke-dashoffset:0;marker:none;visibility:visible;display:inline;overflow:visible;enable-background:accumulate"
       id="path5171"
       sodipodi:cx="169.70563"
       sodipodi:cy="807.90527"
       sodipodi:rx="5.0507627"
       sodipodi:ry="5.0507627"
       d="m 164.65504,807.86338 a 5.0507627,5.0507627 0 1 1 -1.8e-4,0.0419"
       sodipodi:start="3.1498879"
       sodipodi:end="9.424778"
       sodipodi:open="true"
       transform="translate(86.419764,-236.99454)" />
    <path
       transform="translate(61.419764,-203.42311)"
       sodipodi:open="true"
       sodipodi:end="9.424778"
       sodipodi:start="3.1498879"
       d="m 164.65504,807.86338 a 5.0507627,5.0507627 0 1 1 -1.8e-4,0.0419"
       sodipodi:ry="5.0507627"
       sodipodi:rx="5.0507627"
       sodipodi:cy="807.90527"
       sodipodi:cx="169.70563"
       id="path5205"
       style="color:#000000;fill:none;stroke:#000000;stroke-width:1;stroke-linecap:butt;stroke-linejoin:miter;stroke-miterlimit:4;stroke-opacity:1;stroke-dasharray:none;stroke-dashoffset:0;marker:none;visibility:visible;display:inline;overflow:visible;enable-background:accumulate"
       sodipodi:type="arc" />
    <path
       sodipodi:type="arc"
       style="color:#000000;fill:none;stroke:#000000;stroke-width:1;stroke-linecap:butt;stroke-linejoin:miter;stroke-miterlimit:4;stroke-opacity:1;stroke-dasharray:none;stroke-dashoffset:0;marker:none;visibility:visible;display:inline;overflow:visible;enable-background:accumulate"
       id="path5207"
       sodipodi:cx="169.70563"
       sodipodi:cy="807.90527"
       sodipodi:rx="5.0507627"
       sodipodi:ry="5.0507627"
       d="m 164.65504,807.86338 a 5.0507627,5.0507627 0 1 1 -1.8e-4,0.0419"
       sodipodi:start="3.1498879"
       sodipodi:end="9.424778"
       sodipodi:open="true"
       transform="translate(79.276907,-165.56597)" />
    <g
       id="g5279"
       transform="translate(6.7279485,-7.7914376)">
      <g
         transform="translate(272.14286,-12.857143)"
         id="g5251">
        <path
           transform="translate(-133.16532,-287.77453)"
           sodipodi:open="true"
           sodipodi:end="9.424778"
           sodipodi:start="3.1498879"
           d="m 164.65504,807.86338 c 0.0231,-2.78937 2.30312,-5.03183 5.09248,-5.0087 2.78937,0.0231 5.03184,2.30313 5.0087,5.09249 -0.0231,2.78936 -2.30313,5.03183 -5.09249,5.00869 -2.77302,-0.023 -5.00887,-2.27748 -5.00887,-5.05059"
           sodipodi:ry="5.0507627"
           sodipodi:rx="5.0507627"
           sodipodi:cy="807.90527"
           sodipodi:cx="169.70563"
           id="path5173"
           style="color:#000000;fill:none;stroke:#000000;stroke-width:1;stroke-linecap:butt;stroke-linejoin:miter;stroke-miterlimit:4;stroke-opacity:1;stroke-dasharray:none;stroke-dashoffset:0;marker:none;visibility:visible;display:inline;overflow:visible;enable-background:accumulate"
           sodipodi:type="arc" />
        <path
           sodipodi:type="arc"
           style="color:#000000;fill:none;stroke:#000000;stroke-width:1;stroke-linecap:butt;stroke-linejoin:miter;stroke-miterlimit:4;stroke-opacity:1;stroke-dasharray:none;stroke-dashoffset:0;marker:none;visibility:visible;display:inline;overflow:visible;enable-background:accumulate"
           id="path5209"
           sodipodi:cx="169.70563"
           sodipodi:cy="807.90527"
           sodipodi:rx="5.0507627"
           sodipodi:ry="5.0507627"
           d="m 164.65504,807.86338 c 0.0231,-2.78937 2.30312,-5.03183 5.09248,-5.0087 2.78937,0.0231 5.03184,2.30313 5.0087,5.09249 -0.0231,2.78936 -2.30313,5.03183 -5.09249,5.00869 -2.77302,-0.023 -5.00887,-2.27748 -5.00887,-5.05059"
           sodipodi:start="3.1498879"
           sodipodi:end="9.424778"
           sodipodi:open="true"
           transform="translate(-93.165324,-287.77453)" />
        <path
           transform="translate(-53.165324,-287.77453)"
           sodipodi:open="true"
           sodipodi:end="9.424778"
           sodipodi:start="3.1498879"
           d="m 164.65504,807.86338 c 0.0231,-2.78937 2.30312,-5.03183 5.09248,-5.0087 2.78937,0.0231 5.03184,2.30313 5.0087,5.09249 -0.0231,2.78936 -2.30313,5.03183 -5.09249,5.00869 -2.77302,-0.023 -5.00887,-2.27748 -5.00887,-5.05059"
           sodipodi:ry="5.0507627"
           sodipodi:rx="5.0507627"
           sodipodi:cy="807.90527"
           sodipodi:cx="169.70563"
           id="path5211"
           style="color:#000000;fill:none;stroke:#000000;stroke-width:1;stroke-linecap:butt;stroke-linejoin:miter;stroke-miterlimit:4;stroke-opacity:1;stroke-dasharray:none;stroke-dashoffset:0;marker:none;visibility:visible;display:inline;overflow:visible;enable-background:accumulate"
           sodipodi:type="arc" />
        <path
           sodipodi:type="arc"
           style="color:#000000;fill:none;stroke:#000000;stroke-width:1;stroke-linecap:butt;stroke-linejoin:miter;stroke-miterlimit:4;stroke-opacity:1;stroke-dasharray:none;stroke-dashoffset:0;marker:none;visibility:visible;display:inline;overflow:visible;enable-background:accumulate"
           id="path5213"
           sodipodi:cx="169.70563"
           sodipodi:cy="807.90527"
           sodipodi:rx="5.0507627"
           sodipodi:ry="5.0507627"
           d="m 164.65504,807.86338 c 0.0231,-2.78937 2.30312,-5.03183 5.09248,-5.0087 2.78937,0.0231 5.03184,2.30313 5.0087,5.09249 -0.0231,2.78936 -2.30313,5.03183 -5.09249,5.00869 -2.77302,-0.023 -5.00887,-2.27748 -5.00887,-5.05059"
           sodipodi:start="3.1498879"
           sodipodi:end="9.424778"
           sodipodi:open="true"
           transform="translate(-13.165324,-287.77453)" />
      </g>
      <g
         transform="translate(271.42857,-13.035731)"
         id="g5257">
        <path
           sodipodi:type="arc"
           style="color:#000000;fill:none;stroke:#000000;stroke-width:1;stroke-linecap:butt;stroke-linejoin:miter;stroke-miterlimit:4;stroke-opacity:1;stroke-dasharray:none;stroke-dashoffset:0;marker:none;visibility:visible;display:inline;overflow:visible;enable-background:accumulate"
           id="path5215"
           sodipodi:cx="169.70563"
           sodipodi:cy="807.90527"
           sodipodi:rx="5.0507627"
           sodipodi:ry="5.0507627"
           d="m 164.65504,807.86338 c 0.0231,-2.78937 2.30312,-5.03183 5.09248,-5.0087 2.78937,0.0231 5.03184,2.30313 5.0087,5.09249 -0.0231,2.78936 -2.30313,5.03183 -5.09249,5.00869 -2.77302,-0.023 -5.00887,-2.27748 -5.00887,-5.05059"
           sodipodi:start="3.1498879"
           sodipodi:end="9.424778"
           sodipodi:open="true"
           transform="translate(-112.45103,-267.06024)" />
        <path
           transform="translate(-72.451038,-267.06024)"
           sodipodi:open="true"
           sodipodi:end="9.424778"
           sodipodi:start="3.1498879"
           d="m 164.65504,807.86338 c 0.0231,-2.78937 2.30312,-5.03183 5.09248,-5.0087 2.78937,0.0231 5.03184,2.30313 5.0087,5.09249 -0.0231,2.78936 -2.30313,5.03183 -5.09249,5.00869 -2.77302,-0.023 -5.00887,-2.27748 -5.00887,-5.05059"
           sodipodi:ry="5.0507627"
           sodipodi:rx="5.0507627"
           sodipodi:cy="807.90527"
           sodipodi:cx="169.70563"
           id="path5217"
           style="color:#000000;fill:none;stroke:#000000;stroke-width:1;stroke-linecap:butt;stroke-linejoin:miter;stroke-miterlimit:4;stroke-opacity:1;stroke-dasharray:none;stroke-dashoffset:0;marker:none;visibility:visible;display:inline;overflow:visible;enable-background:accumulate"
           sodipodi:type="arc" />
        <path
           sodipodi:type="arc"
           style="color:#000000;fill:none;stroke:#000000;stroke-width:1;stroke-linecap:butt;stroke-linejoin:miter;stroke-miterlimit:4;stroke-opacity:1;stroke-dasharray:none;stroke-dashoffset:0;marker:none;visibility:visible;display:inline;overflow:visible;enable-background:accumulate"
           id="path5219"
           sodipodi:cx="169.70563"
           sodipodi:cy="807.90527"
           sodipodi:rx="5.0507627"
           sodipodi:ry="5.0507627"
           d="m 164.65504,807.86338 c 0.0231,-2.78937 2.30312,-5.03183 5.09248,-5.0087 2.78937,0.0231 5.03184,2.30313 5.0087,5.09249 -0.0231,2.78936 -2.30313,5.03183 -5.09249,5.00869 -2.77302,-0.023 -5.00887,-2.27748 -5.00887,-5.05059"
           sodipodi:start="3.1498879"
           sodipodi:end="9.424778"
           sodipodi:open="true"
           transform="translate(-32.451038,-267.06024)" />
      </g>
      <g
         transform="translate(272.14286,-10.357173)"
         id="g5262">
        <path
           sodipodi:type="arc"
           style="color:#000000;fill:none;stroke:#000000;stroke-width:1;stroke-linecap:butt;stroke-linejoin:miter;stroke-miterlimit:4;stroke-opacity:1;stroke-dasharray:none;stroke-dashoffset:0;marker:none;visibility:visible;display:inline;overflow:visible;enable-background:accumulate"
           id="path5229"
           sodipodi:cx="169.70563"
           sodipodi:cy="807.90527"
           sodipodi:rx="5.0507627"
           sodipodi:ry="5.0507627"
           d="m 164.65504,807.86338 c 0.0231,-2.78937 2.30312,-5.03183 5.09248,-5.0087 2.78937,0.0231 5.03184,2.30313 5.0087,5.09249 -0.0231,2.78936 -2.30313,5.03183 -5.09249,5.00869 -2.77302,-0.023 -5.00887,-2.27748 -5.00887,-5.05059"
           sodipodi:start="3.1498879"
           sodipodi:end="9.424778"
           sodipodi:open="true"
           transform="translate(-133.16532,-249.2031)" />
        <path
           transform="translate(-93.165324,-249.2031)"
           sodipodi:open="true"
           sodipodi:end="9.424778"
           sodipodi:start="3.1498879"
           d="m 164.65504,807.86338 c 0.0231,-2.78937 2.30312,-5.03183 5.09248,-5.0087 2.78937,0.0231 5.03184,2.30313 5.0087,5.09249 -0.0231,2.78936 -2.30313,5.03183 -5.09249,5.00869 -2.77302,-0.023 -5.00887,-2.27748 -5.00887,-5.05059"
           sodipodi:ry="5.0507627"
           sodipodi:rx="5.0507627"
           sodipodi:cy="807.90527"
           sodipodi:cx="169.70563"
           id="path5231"
           style="color:#000000;fill:none;stroke:#000000;stroke-width:1;stroke-linecap:butt;stroke-linejoin:miter;stroke-miterlimit:4;stroke-opacity:1;stroke-dasharray:none;stroke-dashoffset:0;marker:none;visibility:visible;display:inline;overflow:visible;enable-background:accumulate"
           sodipodi:type="arc" />
        <path
           sodipodi:type="arc"
           style="color:#000000;fill:none;stroke:#000000;stroke-width:1;stroke-linecap:butt;stroke-linejoin:miter;stroke-miterlimit:4;stroke-opacity:1;stroke-dasharray:none;stroke-dashoffset:0;marker:none;visibility:visible;display:inline;overflow:visible;enable-background:accumulate"
           id="path5233"
           sodipodi:cx="169.70563"
           sodipodi:cy="807.90527"
           sodipodi:rx="5.0507627"
           sodipodi:ry="5.0507627"
           d="m 164.65504,807.86338 c 0.0231,-2.78937 2.30312,-5.03183 5.09248,-5.0087 2.78937,0.0231 5.03184,2.30313 5.0087,5.09249 -0.0231,2.78936 -2.30313,5.03183 -5.09249,5.00869 -2.77302,-0.023 -5.00887,-2.27748 -5.00887,-5.05059"
           sodipodi:start="3.1498879"
           sodipodi:end="9.424778"
           sodipodi:open="true"
           transform="translate(-53.165324,-249.2031)" />
        <path
           transform="translate(-13.165324,-249.2031)"
           sodipodi:open="true"
           sodipodi:end="9.424778"
           sodipodi:start="3.1498879"
           d="m 164.65504,807.86338 c 0.0231,-2.78937 2.30312,-5.03183 5.09248,-5.0087 2.78937,0.0231 5.03184,2.30313 5.0087,5.09249 -0.0231,2.78936 -2.30313,5.03183 -5.09249,5.00869 -2.77302,-0.023 -5.00887,-2.27748 -5.00887,-5.05059"
           sodipodi:ry="5.0507627"
           sodipodi:rx="5.0507627"
           sodipodi:cy="807.90527"
           sodipodi:cx="169.70563"
           id="path5235"
           style="color:#000000;fill:none;stroke:#000000;stroke-width:1;stroke-linecap:butt;stroke-linejoin:miter;stroke-miterlimit:4;stroke-opacity:1;stroke-dasharray:none;stroke-dashoffset:0;marker:none;visibility:visible;display:inline;overflow:visible;enable-background:accumulate"
           sodipodi:type="arc" />
      </g>
      <g
         transform="translate(271.42857,-11.249995)"
         id="g5268">
        <path
           transform="translate(-112.45103,-227.77453)"
           sodipodi:open="true"
           sodipodi:end="9.424778"
           sodipodi:start="3.1498879"
           d="m 164.65504,807.86338 c 0.0231,-2.78937 2.30312,-5.03183 5.09248,-5.0087 2.78937,0.0231 5.03184,2.30313 5.0087,5.09249 -0.0231,2.78936 -2.30313,5.03183 -5.09249,5.00869 -2.77302,-0.023 -5.00887,-2.27748 -5.00887,-5.05059"
           sodipodi:ry="5.0507627"
           sodipodi:rx="5.0507627"
           sodipodi:cy="807.90527"
           sodipodi:cx="169.70563"
           id="path5237"
           style="color:#000000;fill:none;stroke:#000000;stroke-width:1;stroke-linecap:butt;stroke-linejoin:miter;stroke-miterlimit:4;stroke-opacity:1;stroke-dasharray:none;stroke-dashoffset:0;marker:none;visibility:visible;display:inline;overflow:visible;enable-background:accumulate"
           sodipodi:type="arc" />
        <path
           sodipodi:type="arc"
           style="color:#000000;fill:none;stroke:#000000;stroke-width:1;stroke-linecap:butt;stroke-linejoin:miter;stroke-miterlimit:4;stroke-opacity:1;stroke-dasharray:none;stroke-dashoffset:0;marker:none;visibility:visible;display:inline;overflow:visible;enable-background:accumulate"
           id="path5239"
           sodipodi:cx="169.70563"
           sodipodi:cy="807.90527"
           sodipodi:rx="5.0507627"
           sodipodi:ry="5.0507627"
           d="m 164.65504,807.86338 c 0.0231,-2.78937 2.30312,-5.03183 5.09248,-5.0087 2.78937,0.0231 5.03184,2.30313 5.0087,5.09249 -0.0231,2.78936 -2.30313,5.03183 -5.09249,5.00869 -2.77302,-0.023 -5.00887,-2.27748 -5.00887,-5.05059"
           sodipodi:start="3.1498879"
           sodipodi:end="9.424778"
           sodipodi:open="true"
           transform="translate(-72.451038,-227.77453)" />
        <path
           transform="translate(-32.451038,-227.77453)"
           sodipodi:open="true"
           sodipodi:end="9.424778"
           sodipodi:start="3.1498879"
           d="m 164.65504,807.86338 c 0.0231,-2.78937 2.30312,-5.03183 5.09248,-5.0087 2.78937,0.0231 5.03184,2.30313 5.0087,5.09249 -0.0231,2.78936 -2.30313,5.03183 -5.09249,5.00869 -2.77302,-0.023 -5.00887,-2.27748 -5.00887,-5.05059"
           sodipodi:ry="5.0507627"
           sodipodi:rx="5.0507627"
           sodipodi:cy="807.90527"
           sodipodi:cx="169.70563"
           id="path5241"
           style="color:#000000;fill:none;stroke:#000000;stroke-width:1;stroke-linecap:butt;stroke-linejoin:miter;stroke-miterlimit:4;stroke-opacity:1;stroke-dasharray:none;stroke-dashoffset:0;marker:none;visibility:visible;display:inline;overflow:visible;enable-background:accumulate"
           sodipodi:type="arc" />
      </g>
      <g
         transform="translate(272.14286,-12.857143)"
         id="g5273">
        <path
           sodipodi:type="arc"
           style="color:#000000;fill:none;stroke:#000000;stroke-width:1;stroke-linecap:butt;stroke-linejoin:miter;stroke-miterlimit:4;stroke-opacity:1;stroke-dasharray:none;stroke-dashoffset:0;marker:none;visibility:visible;display:inline;overflow:visible;enable-background:accumulate"
           id="path5243"
           sodipodi:cx="169.70563"
           sodipodi:cy="807.90527"
           sodipodi:rx="5.0507627"
           sodipodi:ry="5.0507627"
           d="m 164.65504,807.86338 c 0.0231,-2.78937 2.30312,-5.03183 5.09248,-5.0087 2.78937,0.0231 5.03184,2.30313 5.0087,5.09249 -0.0231,2.78936 -2.30313,5.03183 -5.09249,5.00869 -2.77302,-0.023 -5.00887,-2.27748 -5.00887,-5.05059"
           sodipodi:start="3.1498879"
           sodipodi:end="9.424778"
           sodipodi:open="true"
           transform="translate(-133.16532,-205.63167)" />
        <path
           transform="translate(-93.165324,-205.63167)"
           sodipodi:open="true"
           sodipodi:end="9.424778"
           sodipodi:start="3.1498879"
           d="m 164.65504,807.86338 c 0.0231,-2.78937 2.30312,-5.03183 5.09248,-5.0087 2.78937,0.0231 5.03184,2.30313 5.0087,5.09249 -0.0231,2.78936 -2.30313,5.03183 -5.09249,5.00869 -2.77302,-0.023 -5.00887,-2.27748 -5.00887,-5.05059"
           sodipodi:ry="5.0507627"
           sodipodi:rx="5.0507627"
           sodipodi:cy="807.90527"
           sodipodi:cx="169.70563"
           id="path5245"
           style="color:#000000;fill:none;stroke:#000000;stroke-width:1;stroke-linecap:butt;stroke-linejoin:miter;stroke-miterlimit:4;stroke-opacity:1;stroke-dasharray:none;stroke-dashoffset:0;marker:none;visibility:visible;display:inline;overflow:visible;enable-background:accumulate"
           sodipodi:type="arc" />
        <path
           sodipodi:type="arc"
           style="color:#000000;fill:none;stroke:#000000;stroke-width:1;stroke-linecap:butt;stroke-linejoin:miter;stroke-miterlimit:4;stroke-opacity:1;stroke-dasharray:none;stroke-dashoffset:0;marker:none;visibility:visible;display:inline;overflow:visible;enable-background:accumulate"
           id="path5247"
           sodipodi:cx="169.70563"
           sodipodi:cy="807.90527"
           sodipodi:rx="5.0507627"
           sodipodi:ry="5.0507627"
           d="m 164.65504,807.86338 c 0.0231,-2.78937 2.30312,-5.03183 5.09248,-5.0087 2.78937,0.0231 5.03184,2.30313 5.0087,5.09249 -0.0231,2.78936 -2.30313,5.03183 -5.09249,5.00869 -2.77302,-0.023 -5.00887,-2.27748 -5.00887,-5.05059"
           sodipodi:start="3.1498879"
           sodipodi:end="9.424778"
           sodipodi:open="true"
           transform="translate(-53.165324,-205.63167)" />
        <path
           transform="translate(-13.165324,-205.63167)"
           sodipodi:open="true"
           sodipodi:end="9.424778"
           sodipodi:start="3.1498879"
           d="m 164.65504,807.86338 c 0.0231,-2.78937 2.30312,-5.03183 5.09248,-5.0087 2.78937,0.0231 5.03184,2.30313 5.0087,5.09249 -0.0231,2.78936 -2.30313,5.03183 -5.09249,5.00869 -2.77302,-0.023 -5.00887,-2.27748 -5.00887,-5.05059"
           sodipodi:ry="5.0507627"
           sodipodi:rx="5.0507627"
           sodipodi:cy="807.90527"
           sodipodi:cx="169.70563"
           id="path5249"
           style="color:#000000;fill:none;stroke:#000000;stroke-width:1;stroke-linecap:butt;stroke-linejoin:miter;stroke-miterlimit:4;stroke-opacity:1;stroke-dasharray:none;stroke-dashoffset:0;marker:none;visibility:visible;display:inline;overflow:visible;enable-background:accumulate"
           sodipodi:type="arc" />
      </g>
    </g>
    <path
       transform="translate(119.9912,-158.42311)"
       sodipodi:open="true"
       sodipodi:end="9.424778"
       sodipodi:start="3.1498879"
       d="m 164.65504,807.86338 a 5.0507627,5.0507627 0 1 1 -1.8e-4,0.0419"
       sodipodi:ry="5.0507627"
       sodipodi:rx="5.0507627"
       sodipodi:cy="807.90527"
       sodipodi:cx="169.70563"
       id="path3127"
       style="color:#000000;fill:none;stroke:#000000;stroke-width:1;stroke-linecap:butt;stroke-linejoin:miter;stroke-miterlimit:4;stroke-opacity:1;stroke-dasharray:none;stroke-dashoffset:0;marker:none;visibility:visible;display:inline;overflow:visible;enable-background:accumulate"
       sodipodi:type="arc" />
    <path
       sodipodi:type="arc"
       style="color:#000000;fill:none;stroke:#000000;stroke-width:1;stroke-linecap:butt;stroke-linejoin:miter;stroke-miterlimit:4;stroke-opacity:1;stroke-dasharray:none;stroke-dashoffset:0;marker:none;visibility:visible;display:inline;overflow:visible;enable-background:accumulate"
       id="path3129"
       sodipodi:cx="169.70563"
       sodipodi:cy="807.90527"
       sodipodi:rx="5.0507627"
       sodipodi:ry="5.0507627"
       d="m 164.65504,807.86338 a 5.0507627,5.0507627 0 1 1 -1.8e-4,0.0419"
       sodipodi:start="3.1498879"
       sodipodi:end="9.424778"
       sodipodi:open="true"
       transform="translate(155.70549,-177.70882)" />
    <path
       transform="translate(189.9912,-156.99454)"
       sodipodi:open="true"
       sodipodi:end="9.424778"
       sodipodi:start="3.1498879"
       d="m 164.65504,807.86338 a 5.0507627,5.0507627 0 1 1 -1.8e-4,0.0419"
       sodipodi:ry="5.0507627"
       sodipodi:rx="5.0507627"
       sodipodi:cy="807.90527"
       sodipodi:cx="169.70563"
       id="path3131"
       style="color:#000000;fill:none;stroke:#000000;stroke-width:1;stroke-linecap:butt;stroke-linejoin:miter;stroke-miterlimit:4;stroke-opacity:1;stroke-dasharray:none;stroke-dashoffset:0;marker:none;visibility:visible;display:inline;overflow:visible;enable-background:accumulate"
       sodipodi:type="arc" />
    <path
       sodipodi:type="arc"
       style="color:#000000;fill:none;stroke:#000000;stroke-width:1;stroke-linecap:butt;stroke-linejoin:miter;stroke-miterlimit:4;stroke-opacity:1;stroke-dasharray:none;stroke-dashoffset:0;marker:none;visibility:visible;display:inline;overflow:visible;enable-background:accumulate"
       id="path3133"
       sodipodi:cx="169.70563"
       sodipodi:cy="807.90527"
       sodipodi:rx="5.0507627"
       sodipodi:ry="5.0507627"
       d="m 164.65504,807.86338 a 5.0507627,5.0507627 0 1 1 -1.8e-4,0.0419"
       sodipodi:start="3.1498879"
       sodipodi:end="9.424778"
       sodipodi:open="true"
       transform="translate(222.13405,-171.99454)" />
    <path
       transform="translate(269.27691,-147.70883)"
       sodipodi:open="true"
       sodipodi:end="9.424778"
       sodipodi:start="3.1498879"
       d="m 164.65504,807.86338 a 5.0507627,5.0507627 0 1 1 -1.8e-4,0.0419"
       sodipodi:ry="5.0507627"
       sodipodi:rx="5.0507627"
       sodipodi:cy="807.90527"
       sodipodi:cx="169.70563"
       id="path3135"
       style="color:#000000;fill:none;stroke:#000000;stroke-width:1;stroke-linecap:butt;stroke-linejoin:miter;stroke-miterlimit:4;stroke-opacity:1;stroke-dasharray:none;stroke-dashoffset:0;marker:none;visibility:visible;display:inline;overflow:visible;enable-background:accumulate"
       sodipodi:type="arc" />
    <path
       transform="translate(164.9912,-387.70883)"
       sodipodi:open="true"
       sodipodi:end="9.424778"
       sodipodi:start="3.1498879"
       d="m 164.65504,807.86338 a 5.0507627,5.0507627 0 1 1 -1.8e-4,0.0419"
       sodipodi:ry="5.0507627"
       sodipodi:rx="5.0507627"
       sodipodi:cy="807.90527"
       sodipodi:cx="169.70563"
       id="path3137"
       style="color:#000000;fill:none;stroke:#000000;stroke-width:1;stroke-linecap:butt;stroke-linejoin:miter;stroke-miterlimit:4;stroke-opacity:1;stroke-dasharray:none;stroke-dashoffset:0;marker:none;visibility:visible;display:inline;overflow:visible;enable-background:accumulate"
       sodipodi:type="arc" />
    <path
       sodipodi:type="arc"
       style="color:#000000;fill:none;stroke:#000000;stroke-width:1;stroke-linecap:butt;stroke-linejoin:miter;stroke-miterlimit:4;stroke-opacity:1;stroke-dasharray:none;stroke-dashoffset:0;marker:none;visibility:visible;display:inline;overflow:visible;enable-background:accumulate"
       id="path3139"
       sodipodi:cx="169.70563"
       sodipodi:cy="807.90527"
       sodipodi:rx="5.0507627"
       sodipodi:ry="5.0507627"
       d="m 164.65504,807.86338 a 5.0507627,5.0507627 0 1 1 -1.8e-4,0.0419"
       sodipodi:start="3.1498879"
       sodipodi:end="9.424778"
       sodipodi:open="true"
       transform="translate(184.9912,-364.1374)" />
    <path
       transform="translate(218.56263,-384.1374)"
       sodipodi:open="true"
       sodipodi:end="9.424778"
       sodipodi:start="3.1498879"
       d="m 164.65504,807.86338 a 5.0507627,5.0507627 0 1 1 -1.8e-4,0.0419"
       sodipodi:ry="5.0507627"
       sodipodi:rx="5.0507627"
       sodipodi:cy="807.90527"
       sodipodi:cx="169.70563"
       id="path3141"
       style="color:#000000;fill:none;stroke:#000000;stroke-width:1;stroke-linecap:butt;stroke-linejoin:miter;stroke-miterlimit:4;stroke-opacity:1;stroke-dasharray:none;stroke-dashoffset:0;marker:none;visibility:visible;display:inline;overflow:visible;enable-background:accumulate"
       sodipodi:type="arc" />
    <path
       sodipodi:type="arc"
       style="color:#000000;fill:none;stroke:#000000;stroke-width:1;stroke-linecap:butt;stroke-linejoin:miter;stroke-miterlimit:4;stroke-opacity:1;stroke-dasharray:none;stroke-dashoffset:0;marker:none;visibility:visible;display:inline;overflow:visible;enable-background:accumulate"
       id="path3143"
       sodipodi:cx="169.70563"
       sodipodi:cy="807.90527"
       sodipodi:rx="5.0507627"
       sodipodi:ry="5.0507627"
       d="m 164.65504,807.86338 a 5.0507627,5.0507627 0 1 1 -1.8e-4,0.0419"
       sodipodi:start="3.1498879"
       sodipodi:end="9.424778"
       sodipodi:open="true"
       transform="translate(275.70549,-389.85169)" />
    <path
       transform="translate(239.9912,-348.42312)"
       sodipodi:open="true"
       sodipodi:end="9.424778"
       sodipodi:start="3.1498879"
       d="m 164.65504,807.86338 a 5.0507627,5.0507627 0 1 1 -1.8e-4,0.0419"
       sodipodi:ry="5.0507627"
       sodipodi:rx="5.0507627"
       sodipodi:cy="807.90527"
       sodipodi:cx="169.70563"
       id="path3145"
       style="color:#000000;fill:none;stroke:#000000;stroke-width:1;stroke-linecap:butt;stroke-linejoin:miter;stroke-miterlimit:4;stroke-opacity:1;stroke-dasharray:none;stroke-dashoffset:0;marker:none;visibility:visible;display:inline;overflow:visible;enable-background:accumulate"
       sodipodi:type="arc" />
    <path
       sodipodi:type="arc"
       style="color:#000000;fill:none;stroke:#000000;stroke-width:1;stroke-linecap:butt;stroke-linejoin:miter;stroke-miterlimit:4;stroke-opacity:1;stroke-dasharray:none;stroke-dashoffset:0;marker:none;visibility:visible;display:inline;overflow:visible;enable-background:accumulate"
       id="path3147"
       sodipodi:cx="169.70563"
       sodipodi:cy="807.90527"
       sodipodi:rx="5.0507627"
       sodipodi:ry="5.0507627"
       d="m 164.65504,807.86338 a 5.0507627,5.0507627 0 1 1 -1.8e-4,0.0419"
       sodipodi:start="3.1498879"
       sodipodi:end="9.424778"
       sodipodi:open="true"
       transform="translate(314.27691,-317.70883)" />
    <path
       transform="translate(331.41977,-281.99454)"
       sodipodi:open="true"
       sodipodi:end="9.424778"
       sodipodi:start="3.1498879"
       d="m 164.65504,807.86338 a 5.0507627,5.0507627 0 1 1 -1.8e-4,0.0419"
       sodipodi:ry="5.0507627"
       sodipodi:rx="5.0507627"
       sodipodi:cy="807.90527"
       sodipodi:cx="169.70563"
       id="path3149"
       style="color:#000000;fill:none;stroke:#000000;stroke-width:1;stroke-linecap:butt;stroke-linejoin:miter;stroke-miterlimit:4;stroke-opacity:1;stroke-dasharray:none;stroke-dashoffset:0;marker:none;visibility:visible;display:inline;overflow:visible;enable-background:accumulate"
       sodipodi:type="arc" />
    <path
       sodipodi:type="arc"
       style="color:#000000;fill:none;stroke:#000000;stroke-width:1;stroke-linecap:butt;stroke-linejoin:miter;stroke-miterlimit:4;stroke-opacity:1;stroke-dasharray:none;stroke-dashoffset:0;marker:none;visibility:visible;display:inline;overflow:visible;enable-background:accumulate"
       id="path3151"
       sodipodi:cx="169.70563"
       sodipodi:cy="807.90527"
       sodipodi:rx="5.0507627"
       sodipodi:ry="5.0507627"
       d="m 164.65504,807.86338 a 5.0507627,5.0507627 0 1 1 -1.8e-4,0.0419"
       sodipodi:start="3.1498879"
       sodipodi:end="9.424778"
       sodipodi:open="true"
       transform="translate(312.84834,-238.42311)" />
    <path
       transform="translate(340.70549,-387.70883)"
       sodipodi:open="true"
       sodipodi:end="9.424778"
       sodipodi:start="3.1498879"
       d="m 164.65504,807.86338 a 5.0507627,5.0507627 0 1 1 -1.8e-4,0.0419"
       sodipodi:ry="5.0507627"
       sodipodi:rx="5.0507627"
       sodipodi:cy="807.90527"
       sodipodi:cx="169.70563"
       id="path3153"
       style="color:#000000;fill:none;stroke:#000000;stroke-width:1;stroke-linecap:butt;stroke-linejoin:miter;stroke-miterlimit:4;stroke-opacity:1;stroke-dasharray:none;stroke-dashoffset:0;marker:none;visibility:visible;display:inline;overflow:visible;enable-background:accumulate"
       sodipodi:type="arc" />
    <path
       sodipodi:type="arc"
       style="color:#000000;fill:none;stroke:#000000;stroke-width:1;stroke-linecap:butt;stroke-linejoin:miter;stroke-miterlimit:4;stroke-opacity:1;stroke-dasharray:none;stroke-dashoffset:0;marker:none;visibility:visible;display:inline;overflow:visible;enable-background:accumulate"
       id="path3155"
       sodipodi:cx="169.70563"
       sodipodi:cy="807.90527"
       sodipodi:rx="5.0507627"
       sodipodi:ry="5.0507627"
       d="m 164.65504,807.86338 a 5.0507627,5.0507627 0 1 1 -1.8e-4,0.0419"
       sodipodi:start="3.1498879"
       sodipodi:end="9.424778"
       sodipodi:open="true"
       transform="translate(285.70548,-170.56597)" />
    <path
       transform="translate(324.27691,-151.28026)"
       sodipodi:open="true"
       sodipodi:end="9.424778"
       sodipodi:start="3.1498879"
       d="m 164.65504,807.86338 a 5.0507627,5.0507627 0 1 1 -1.8e-4,0.0419"
       sodipodi:ry="5.0507627"
       sodipodi:rx="5.0507627"
       sodipodi:cy="807.90527"
       sodipodi:cx="169.70563"
       id="path3157"
       style="color:#000000;fill:none;stroke:#000000;stroke-width:1;stroke-linecap:butt;stroke-linejoin:miter;stroke-miterlimit:4;stroke-opacity:1;stroke-dasharray:none;stroke-dashoffset:0;marker:none;visibility:visible;display:inline;overflow:visible;enable-background:accumulate"
       sodipodi:type="arc" />
    <path
       sodipodi:type="arc"
       style="color:#000000;fill:none;stroke:#000000;stroke-width:1;stroke-linecap:butt;stroke-linejoin:miter;stroke-miterlimit:4;stroke-opacity:1;stroke-dasharray:none;stroke-dashoffset:0;marker:none;visibility:visible;display:inline;overflow:visible;enable-background:accumulate"
       id="path3159"
       sodipodi:cx="169.70563"
       sodipodi:cy="807.90527"
       sodipodi:rx="5.0507627"
       sodipodi:ry="5.0507627"
       d="m 164.65504,807.86338 a 5.0507627,5.0507627 0 1 1 -1.8e-4,0.0419"
       sodipodi:start="3.1498879"
       sodipodi:end="9.424778"
       sodipodi:open="true"
       transform="translate(337.84834,-199.1374)" />
    <rect
       style="color:#000000;fill:none;stroke:#000000;stroke-width:1;stroke-linecap:butt;stroke-linejoin:miter;stroke-miterlimit:4;stroke-opacity:1;stroke-dasharray:1, 4;stroke-dashoffset:0;marker:none;visibility:visible;display:inline;overflow:visible;enable-background:accumulate"
       id="rect3161"
       width="466.42856"
       height="390"
       x="137.14285"
       y="341.64789" />
  </g>
</svg>
